<svg width="24" height="24" viewBox="0 0 24 24" fill="none" xmlns="http://www.w3.org/2000/svg">
<path d="M7.5 22H21.5C21.775 22 22 21.775 22 21.5V7H18.5C17.673 7 17 6.327 17 5.5V2H7.5C7.225 2 7 2.225 7 2.5V21.5C7 21.775 7.225 22 7.5 22Z" fill="white"/>
<path d="M21.293 5.99997L18 2.70697V5.49997C18 5.77497 18.225 5.99997 18.5 5.99997H21.293Z" fill="white"/>
<path opacity="0.67" fill-rule="evenodd" clip-rule="evenodd" d="M22.56 5.854L18.146 1.439C17.8642 1.15891 17.4833 1.00117 17.086 1H7.5C6.673 1 6 1.673 6 2.5V21.5C6 22.327 6.673 23 7.5 23H21.5C22.327 23 23 22.327 23 21.5V6.914C23 6.514 22.844 6.137 22.56 5.854ZM18 2.707L21.293 6H18.5C18.2241 5.99945 18.0006 5.77591 18 5.5V2.707ZM7.5 22H21.5C21.775 22 22 21.775 22 21.5V7H18.5C17.673 7 17 6.327 17 5.5V2H7.5C7.225 2 7 2.225 7 2.5V21.5C7.00055 21.7759 7.22409 21.9995 7.5 22Z" fill="#64748B"/>
<path d="M19.5 14H14V15H19.5C19.7761 15 20 14.7761 20 14.5C20 14.2239 19.7761 14 19.5 14Z" fill="#2B593D"/>
<path d="M19.5 12H14V13H19.5C19.7761 13 20 12.7761 20 12.5C20 12.2239 19.7761 12 19.5 12Z" fill="#54AD7D"/>
<path d="M19.5 10H14V11H19.5C19.7761 11 20 10.7761 20 10.5C20 10.2239 19.7761 10 19.5 10Z" fill="#69C997"/>
<path d="M2 19H12C12.5523 19 13 18.5523 13 18V8C13 7.44772 12.5523 7 12 7H2C1.44772 7 1 7.44772 1 8V18C1 18.5523 1.44772 19 2 19Z" fill="#3D8A58"/>
<path d="M4 16L6.20572 12.869L4.20394 10H5.72809L7.02147 11.9277L8.28801 10H9.79606L7.79428 12.9141L10 16H8.42755L6.99463 13.925L5.56172 16H4Z" fill="white"/>
</svg>
