<svg width="76" height="28" viewBox="0 0 76 28" fill="none" xmlns="http://www.w3.org/2000/svg">
<path d="M23.6477 25.1278C22.9943 25.1278 22.4332 24.9844 21.9645 24.6974C21.4986 24.4105 21.1392 24.0142 20.8864 23.5085C20.6364 23 20.5114 22.4148 20.5114 21.7528C20.5114 21.0881 20.6392 20.5014 20.8949 19.9929C21.1506 19.4815 21.5114 19.0838 21.9773 18.7997C22.446 18.5128 23 18.3693 23.6392 18.3693C24.1704 18.3693 24.6406 18.4673 25.0497 18.6633C25.4616 18.8565 25.7898 19.1307 26.0341 19.4858C26.2784 19.8381 26.4176 20.25 26.4517 20.7216H24.9773C24.9176 20.4062 24.7756 20.1435 24.5511 19.9332C24.3295 19.7202 24.0327 19.6136 23.6605 19.6136C23.3452 19.6136 23.0682 19.6989 22.8295 19.8693C22.5909 20.0369 22.4048 20.2784 22.2713 20.5937C22.1406 20.9091 22.0753 21.2869 22.0753 21.7273C22.0753 22.1733 22.1406 22.5568 22.2713 22.8778C22.402 23.196 22.5852 23.4418 22.821 23.615C23.0596 23.7855 23.3395 23.8707 23.6605 23.8707C23.8878 23.8707 24.0909 23.8281 24.2699 23.7429C24.4517 23.6548 24.6037 23.5284 24.7258 23.3636C24.848 23.1989 24.9318 22.9986 24.9773 22.7628H26.4517C26.4148 23.2258 26.2784 23.6364 26.0426 23.9943C25.8068 24.3494 25.4858 24.6278 25.0795 24.8295C24.6733 25.0284 24.196 25.1278 23.6477 25.1278Z" fill="#1C1C1C"/>
<path d="M30.5735 25.1278C29.9343 25.1278 29.3803 24.9872 28.9116 24.706C28.4428 24.4247 28.0792 24.0312 27.8207 23.5256C27.565 23.0199 27.4371 22.429 27.4371 21.7528C27.4371 21.0767 27.565 20.4844 27.8207 19.9758C28.0792 19.4673 28.4428 19.0724 28.9116 18.7912C29.3803 18.5099 29.9343 18.3693 30.5735 18.3693C31.2127 18.3693 31.7667 18.5099 32.2354 18.7912C32.7042 19.0724 33.0664 19.4673 33.3221 19.9758C33.5806 20.4844 33.7099 21.0767 33.7099 21.7528C33.7099 22.429 33.5806 23.0199 33.3221 23.5256C33.0664 24.0312 32.7042 24.4247 32.2354 24.706C31.7667 24.9872 31.2127 25.1278 30.5735 25.1278ZM30.582 23.892C30.9286 23.892 31.2184 23.7969 31.4513 23.6065C31.6843 23.4133 31.8576 23.1548 31.9712 22.831C32.0877 22.5071 32.1459 22.1463 32.1459 21.7486C32.1459 21.348 32.0877 20.9858 31.9712 20.6619C31.8576 20.3352 31.6843 20.0753 31.4513 19.8821C31.2184 19.6889 30.9286 19.5923 30.582 19.5923C30.2269 19.5923 29.9315 19.6889 29.6957 19.8821C29.4627 20.0753 29.288 20.3352 29.1715 20.6619C29.0579 20.9858 29.0011 21.348 29.0011 21.7486C29.0011 22.1463 29.0579 22.5071 29.1715 22.831C29.288 23.1548 29.4627 23.4133 29.6957 23.6065C29.9315 23.7969 30.2269 23.892 30.582 23.892Z" fill="#1C1C1C"/>
<path d="M36.5618 21.1648V25H35.0192V18.4545H36.4936V19.5668H36.5703C36.7209 19.2003 36.9609 18.9091 37.2905 18.6932C37.6229 18.4773 38.0334 18.3693 38.522 18.3693C38.9737 18.3693 39.3672 18.4659 39.7024 18.6591C40.0405 18.8523 40.3018 19.1321 40.4865 19.4986C40.674 19.865 40.7663 20.3096 40.7635 20.8324V25H39.2209V21.071C39.2209 20.6335 39.1072 20.2912 38.88 20.044C38.6555 19.7969 38.3444 19.6733 37.9467 19.6733C37.6768 19.6733 37.4368 19.7329 37.2266 19.8523C37.0192 19.9687 36.8558 20.1378 36.7365 20.3594C36.62 20.581 36.5618 20.8494 36.5618 21.1648Z" fill="#1C1C1C"/>
<path d="M47.9439 18.4545L45.6129 25H43.9084L41.5774 18.4545H43.2223L44.7266 23.3168H44.7947L46.3033 18.4545H47.9439Z" fill="#1C1C1C"/>
<path d="M51.6864 25.1278C51.0302 25.1278 50.4634 24.9915 49.9861 24.7187C49.5117 24.4432 49.1467 24.054 48.891 23.5511C48.6353 23.0454 48.5074 22.4503 48.5074 21.7656C48.5074 21.0923 48.6353 20.5014 48.891 19.9929C49.1495 19.4815 49.5103 19.0838 49.9734 18.7997C50.4364 18.5128 50.9805 18.3693 51.6055 18.3693C52.0089 18.3693 52.3895 18.4346 52.7475 18.5653C53.1083 18.6932 53.4265 18.892 53.702 19.1619C53.9805 19.4318 54.1992 19.7756 54.3583 20.1932C54.5174 20.6079 54.5969 21.1023 54.5969 21.6761V22.1491H49.2319V21.1094H53.1182C53.1154 20.8139 53.0515 20.5511 52.9265 20.321C52.8015 20.0881 52.6268 19.9048 52.4023 19.7713C52.1807 19.6378 51.9222 19.571 51.6268 19.571C51.3114 19.571 51.0344 19.6477 50.7958 19.8011C50.5572 19.9517 50.3711 20.1506 50.2376 20.3977C50.1069 20.642 50.0401 20.9105 50.0373 21.2031V22.1108C50.0373 22.4915 50.1069 22.8182 50.2461 23.0909C50.3853 23.3608 50.5799 23.5682 50.8299 23.7131C51.0799 23.8551 51.3725 23.9261 51.7077 23.9261C51.9322 23.9261 52.1353 23.8949 52.3171 23.8324C52.4989 23.767 52.6566 23.6719 52.7901 23.5469C52.9236 23.4219 53.0245 23.267 53.0927 23.0824L54.533 23.2443C54.4421 23.625 54.2688 23.9574 54.0131 24.2415C53.7603 24.5227 53.4364 24.7415 53.0415 24.8977C52.6467 25.0511 52.1949 25.1278 51.6864 25.1278Z" fill="#1C1C1C"/>
<path d="M55.902 25V18.4545H57.3977V19.5454H57.4659C57.5852 19.1676 57.7898 18.8764 58.0795 18.6719C58.3721 18.4645 58.706 18.3608 59.081 18.3608C59.1662 18.3608 59.2614 18.365 59.3665 18.3736C59.4744 18.3793 59.5639 18.3892 59.6349 18.4034V19.8224C59.5696 19.7997 59.4659 19.7798 59.3239 19.7628C59.1846 19.7429 59.0497 19.7329 58.919 19.7329C58.6378 19.7329 58.3849 19.794 58.1605 19.9162C57.9389 20.0355 57.7642 20.2017 57.6364 20.4148C57.5085 20.6278 57.4446 20.8736 57.4446 21.152V25H55.902Z" fill="#1C1C1C"/>
<path d="M64.2798 18.4545V19.6477H60.517V18.4545H64.2798ZM61.446 16.8864H62.9886V23.0312C62.9886 23.2386 63.0199 23.3977 63.0824 23.5085C63.1477 23.6165 63.2329 23.6903 63.3381 23.7301C63.4432 23.7699 63.5596 23.7898 63.6875 23.7898C63.7841 23.7898 63.8721 23.7827 63.9517 23.7685C64.0341 23.7543 64.0966 23.7415 64.1392 23.7301L64.3991 24.9361C64.3167 24.9645 64.1989 24.9957 64.0454 25.0298C63.8949 25.0639 63.7102 25.0838 63.4915 25.0895C63.1051 25.1008 62.7571 25.0426 62.4474 24.9148C62.1378 24.7841 61.892 24.5824 61.7102 24.3096C61.5312 24.0369 61.4432 23.696 61.446 23.2869V16.8864Z" fill="#1C1C1C"/>
<path d="M13 21V4.5L6.5 4L0 8.5V21H13Z" fill="#EDEDED"/>
<path d="M24.4546 14H21.0043V3.81818H24.5242C25.535 3.81818 26.4034 4.02201 27.1293 4.42968C27.8584 4.83404 28.4186 5.41571 28.8097 6.17471C29.2008 6.93371 29.3963 7.84185 29.3963 8.89914C29.3963 9.95975 29.1991 10.8712 28.8047 11.6335C28.4136 12.3958 27.8485 12.9808 27.1094 13.3885C26.3736 13.7962 25.4886 14 24.4546 14ZM22.8487 12.4041H24.3651C25.0743 12.4041 25.666 12.2749 26.1399 12.0163C26.6139 11.7545 26.9702 11.3651 27.2088 10.848C27.4475 10.3276 27.5668 9.67802 27.5668 8.89914C27.5668 8.12026 27.4475 7.47395 27.2088 6.96022C26.9702 6.44318 26.6172 6.05705 26.1499 5.80184C25.6859 5.54332 25.1091 5.41406 24.4198 5.41406H22.8487V12.4041Z" fill="#616161"/>
<path d="M31.1488 14V3.81818H37.771V5.36434H32.9933V8.12855H37.4279V9.67471H32.9933V12.4538H37.8107V14H31.1488Z" fill="#616161"/>
<path d="M39.6527 14V3.81818H43.4709C44.2531 3.81818 44.9093 3.96401 45.4396 4.25568C45.9733 4.54734 46.376 4.94838 46.6477 5.4588C46.9228 5.9659 47.0604 6.54261 47.0604 7.18892C47.0604 7.84185 46.9228 8.42187 46.6477 8.92897C46.3726 9.43607 45.9666 9.83546 45.4297 10.1271C44.8928 10.4155 44.2315 10.5597 43.446 10.5597H40.9155V9.04332H43.1975C43.6548 9.04332 44.0294 8.96377 44.321 8.80468C44.6127 8.64559 44.8281 8.42684 44.9673 8.14843C45.1099 7.87002 45.1811 7.55018 45.1811 7.18892C45.1811 6.82765 45.1099 6.50946 44.9673 6.23437C44.8281 5.95928 44.611 5.7455 44.3161 5.59303C44.0244 5.43726 43.6482 5.35937 43.1875 5.35937H41.4972V14H39.6527Z" fill="#616161"/>
<path d="M48.8352 14H46.8665L50.451 3.81818H52.728L56.3175 14H54.3487L51.6293 5.90624H51.5497L48.8352 14ZM48.8999 10.0078H54.2692V11.4893H48.8999V10.0078Z" fill="#616161"/>
<path d="M57.6586 14V3.81818H61.4768C62.259 3.81818 62.9152 3.95407 63.4455 4.22585C63.9791 4.49763 64.3818 4.87878 64.6536 5.36931C64.9287 5.85653 65.0662 6.42495 65.0662 7.07457C65.0662 7.7275 64.927 8.29427 64.6486 8.77485C64.3735 9.25213 63.9675 9.62168 63.4306 9.88352C62.8937 10.142 62.2341 10.2713 61.4519 10.2713H58.7324V8.74005H61.2033C61.6607 8.74005 62.0352 8.67708 62.3269 8.55113C62.6186 8.42187 62.834 8.23461 62.9732 7.98934C63.1157 7.74076 63.187 7.43584 63.187 7.07457C63.187 6.7133 63.1157 6.40506 62.9732 6.14985C62.8307 5.89133 62.6136 5.69578 62.3219 5.5632C62.0303 5.42731 61.6541 5.35937 61.1934 5.35937H59.503V14H57.6586ZM62.9185 9.38636L65.4391 14H63.3809L60.905 9.38636H62.9185Z" fill="#616161"/>
<path d="M68.0716 14H66.1028L69.6873 3.81818H71.9643L75.5538 14H73.5851L70.8656 5.90624H70.7861L68.0716 14ZM68.1362 10.0078H73.5055V11.4893H68.1362V10.0078Z" fill="#616161"/>
<path d="M4.33846 0.374345C4.45996 0.413756 4.5423 0.454515 4.65942 0.493668C5.61757 0.849939 6.54092 1.20782 7.5056 1.56423C7.59855 1.59207 7.65018 1.62136 7.7325 1.64574C7.86708 1.71398 7.97097 1.78714 8.10127 1.87774C8.16951 1.98965 8.21133 2.08411 8.28562 2.23093C8.66167 2.91655 9.00526 3.54979 9.35098 4.22055C9.54467 4.58697 9.73621 4.91588 9.9397 5.28333C10.1677 5.723 10.3837 6.12414 10.6017 6.56057C10.6804 6.70974 10.7571 6.82362 10.8309 6.98623C10.8407 7.42362 10.8533 7.81227 10.8506 8.24798C10.8429 8.65494 10.8505 9.01484 10.8465 9.4227C10.8424 10.1037 10.85 10.7367 10.8434 11.4073C10.8388 11.4968 10.8486 11.5487 10.8469 11.6483C10.8429 12.6444 10.8504 13.5928 10.8437 14.5789C10.8389 14.6684 10.8484 14.7202 10.8462 14.8198C10.8425 15.816 10.8504 16.7645 10.8444 17.7507C10.8396 17.8402 10.8488 17.892 10.8461 17.9915C10.8428 18.8688 10.8514 19.6985 10.8502 20.5788C10.8404 20.9373 10.8404 21.2451 10.8404 21.553C10.8334 23.4308 10.8293 25.3087 10.8159 27.1864C10.8141 27.445 10.7657 27.7032 10.723 28C10.255 27.7681 9.8029 27.4978 9.3181 27.2126C9.28541 27.1976 9.27424 27.2015 9.25332 27.1753C8.74292 26.7974 8.25342 26.4457 7.76392 26.0939C7.71808 26.0487 7.67224 26.0035 7.57511 25.9217C6.97061 25.4825 6.42851 25.0634 5.85989 24.684C5.53352 24.4662 5.9133 24.7198 4.81408 24.1306C3.1456 22.5825 4.58061 23.8643 4.42261 23.6928C3.5 23 4.0548 23.3334 3.8606 23.2323C3.20165 22.8893 2.88114 22.3891 3.0783 21.6355C3.44153 21.6378 3.75808 21.6395 4.07376 21.6825C3.98546 22.2249 4.37384 22.3665 4.72449 22.5825C5.45051 23.1081 6.15281 23.6058 6.87551 24.1347C7.18638 24.3668 7.47686 24.5677 7.78946 24.7981C8.42777 25.2782 9.04394 25.7287 9.72485 26.2265C9.72485 25.5018 9.72485 24.8925 9.73786 24.2466C9.74152 24.1598 9.73218 24.1097 9.73632 24.0122C9.74086 23.014 9.73191 22.0633 9.7364 21.0759C9.74079 20.9888 9.73175 20.9383 9.73639 20.8405C9.74094 19.8423 9.73181 18.8916 9.736 17.9042C9.74043 17.8171 9.73154 17.7666 9.73644 17.6687C9.74108 16.6706 9.73194 15.7199 9.73638 14.7325C9.741 14.6454 9.73203 14.5949 9.73669 14.497C9.74119 13.4989 9.73207 12.5481 9.73674 11.5609C9.74159 11.4739 9.73264 11.4234 9.7372 11.3255C9.74111 10.3272 9.73152 9.37644 9.7364 8.38948C9.74228 8.30291 9.73368 8.25252 9.73776 8.16623C9.63163 7.99629 9.53633 7.82303 9.38981 7.73521C8.85709 7.41589 8.30724 7.12516 7.74972 6.79559C7.67884 6.74399 7.62209 6.72044 7.54509 6.67119C7.39614 6.53155 7.26744 6.4176 7.15143 6.25546C7.16605 5.11888 7.17679 4.03035 7.16035 2.94223C7.15791 2.78091 7.06599 2.52541 6.94904 2.47827C6.49831 2.29659 6.02062 2.18181 5.53528 2.00932C5.08032 1.79339 4.64307 1.61024 4.06749 1.36916C4.06749 2.51498 4.06749 3.51244 4.05835 4.54531C3.71896 4.8726 3.3887 5.16449 3.04762 5.4217C3.02319 5.34082 3.00958 5.29463 2.99597 5.24844C3.00566 5.20084 3.01535 5.15324 3.02524 5.0225C3.01782 4.01966 3.01018 3.09998 3.00255 2.18029C3.0109 2.10061 3.01926 2.02093 3.01452 1.90286C3.01157 1.39477 3.03096 0.925024 3.02892 0.45537C3.02728 0.0766036 3.11152 -0.126989 3.5408 0.0866229C3.78189 0.20659 4.04572 0.280844 4.33846 0.374345Z" fill="#616161"/>
<path d="M9.92747 5.24476C9.73592 4.91585 9.54438 4.58694 9.39954 4.21801C9.87 4.1703 10.2938 4.1626 10.7175 4.15491C10.7989 4.16311 10.8802 4.1713 11.0499 4.17839C11.7509 4.17935 12.3647 4.16156 12.9758 4.19334C13.2184 4.20594 13.4552 4.3285 13.6946 4.40101C13.7285 4.60571 13.7918 4.81037 13.7921 5.01512C13.7985 10.3602 13.7986 15.7052 13.7986 21.0503C13.7986 21.1379 13.785 21.2255 13.7396 21.3876C13.5141 21.4887 13.3271 21.5339 13.1391 21.5383C12.44 21.5543 11.7406 21.5569 11.0413 21.5645C10.9968 21.5605 10.9524 21.5565 10.8741 21.5527C10.8401 21.2451 10.8401 20.9372 10.8965 20.5789C11.4929 20.5285 12.0331 20.5285 12.6153 20.5285C12.6153 19.615 12.6153 18.7757 12.6248 17.9008C12.6279 17.8169 12.6216 17.7686 12.6235 17.6715C12.6237 16.6705 12.6156 15.7182 12.6173 14.73C12.6206 14.645 12.6142 14.5961 12.6187 14.4989C12.6221 13.4986 12.6146 12.5466 12.6172 11.5585C12.6211 11.4736 12.6147 11.4246 12.619 11.3273C12.6246 10.3614 12.6195 9.44376 12.6246 8.48652C12.6262 8.36599 12.6177 8.28508 12.6195 8.15578C12.6319 7.66831 12.6355 7.22924 12.6357 6.79017C12.6364 5.1346 12.636 5.1346 10.9086 5.24395C10.8612 5.24081 10.8421 5.24569 10.775 5.24152C10.4604 5.23656 10.194 5.24066 9.92747 5.24476Z" fill="#1C1C1C"/>
<path d="M4.07427 21.6412C3.75772 21.6395 3.44117 21.6377 3.02667 21.6303C2.42493 21.6283 1.92114 21.6319 1.41736 21.6355C1.39942 21.6314 1.38148 21.6274 1.28944 21.6219C1.00804 21.6183 0.798341 21.5951 0.593993 21.6185C0.201429 21.6635 0.00415929 21.5082 0.000820932 21.1116C0.00801253 21.0616 0.0152041 21.0116 0.0232218 20.8772C0.0160319 19.8418 0.00801604 18.8909 0 17.9401C0.00732312 17.8901 0.014646 17.8401 0.0230879 17.7055C0.0161973 16.6701 0.00818833 15.7192 0.00017927 14.7683C0.00762556 14.7183 0.0150719 14.6684 0.0234066 14.5339C0.0156907 13.4986 0.00708616 12.548 0.010365 11.5605C0.0145518 11.4734 0.00685504 11.4231 0.0114447 11.3252C0.0163925 10.3268 0.00905412 9.37608 0.00171567 8.42537C0.0189181 8.3798 0.0361208 8.33423 0.082693 8.23032C0.510516 7.79204 0.90897 7.41209 1.30742 7.03214C1.41328 6.95608 1.51913 6.88002 1.67089 6.75882C2.16389 6.29456 2.61099 5.87546 3.0581 5.45635C3.38835 5.16446 3.7186 4.87257 4.09594 4.54898C4.32774 4.41367 4.51245 4.31005 4.74602 4.21357C5.28527 4.22072 5.77566 4.22072 6.26605 4.22072C6.29254 4.17566 6.31903 4.13059 6.34551 4.08553C5.82296 3.98493 5.23511 5.05719 5.5 4.5C5.84249 4.82388 6.22527 3.76704 6.26605 4.0681C6.36523 4.80012 6.33161 4.03089 6.26605 4.77391C5.91752 4.48704 6.15407 5.04673 5.83953 4.77391C5.75925 4.70428 5.59685 5.25334 5.53499 5.28377C5.4411 5.32997 5.33842 5.47307 5.33765 5.57574C5.33103 6.45126 5.34661 7.32695 5.34507 8.23927C5.34276 8.32564 5.35092 8.37531 5.34785 8.46496C5.30065 8.63473 5.26466 8.76452 5.1814 8.8844C4.87943 8.89015 4.62473 8.90581 4.32291 8.90689C3.36089 8.9022 2.44598 8.91212 1.49113 8.90477C1.16416 8.83941 1.08527 8.98953 1.09007 9.24607C1.10534 10.0618 1.11238 10.8777 1.11405 11.7427C1.11093 12.6774 1.11637 13.5629 1.11213 14.4894C1.10906 14.642 1.11567 14.7536 1.1138 14.9144C1.11082 15.8492 1.1163 16.7347 1.11235 17.6687C1.09917 18.5431 1.09613 19.3689 1.0912 20.1948C1.08984 20.4211 1.08565 20.6447 1.47242 20.5583C2.4718 20.564 3.42294 20.5601 4.41081 20.5649C4.49685 20.5655 4.54613 20.5575 4.64223 20.5589C5.2394 20.5681 5.78977 20.5681 6.34015 20.5681C6.3379 20.515 6.33565 20.4619 6.33341 20.4089C6.13824 20.3593 6.19041 20.5922 6 20.5C6.04522 20.2427 6 19.9999 6 19.9999C6.36629 20.2771 6.03396 20.5 6.5 20.5C6.49848 20.7643 6.93731 20.892 6.93715 21.1586C6.92514 21.6627 6.5 21.0433 6.5 21.5C6.56398 21.4736 6.43602 21.5263 6.5 21.5C6.21158 21.2677 6.5 21.5 6.38281 21.6125C5.96484 21.6125 5.57969 21.605 5.3193 21.6125C5.11039 21.6186 4.90147 21.6244 4.64881 21.6224C4.42814 21.6234 4.2512 21.6323 4.07427 21.6412Z" fill="#1C1C1C"/>
<path d="M7.49997 21.0066L5.99152 22.2958L6.00849 19.6978L7.49997 21.0066Z" fill="#1C1C1C"/>
<path d="M4 5L5 4H6.5V5H4Z" fill="#1C1C1C"/>
</svg>
